<svg width="50" height="50" viewBox="0 0 50 50" fill="none" xmlns="http://www.w3.org/2000/svg">
<g clip-path="url(#clip0)">
<path d="M24.9618 49.9615C38.7478 49.9615 49.9236 38.7858 49.9236 24.9997C49.9236 11.2137 38.7478 0.0379028 24.9618 0.0379028C11.1758 0.0379028 0 11.2137 0 24.9997C0 38.7858 11.1758 49.9615 24.9618 49.9615Z" fill="#34ABE0"/>
<path d="M50 25.0003C50 28.6559 49.2145 32.1281 47.8024 35.257C44.3363 42.9381 37.0953 48.5509 28.4443 49.7307C27.5233 49.8571 26.5859 49.9325 25.6364 49.9549C25.4377 49.9599 25.238 49.962 25.0383 49.962C15.886 49.962 7.885 45.0369 3.53959 37.693C3.13412 37.0063 2.75912 36.2993 2.41889 35.5728C1.99096 34.6569 1.61606 33.7114 1.29916 32.7383L33.9991 0.0384521L34.1305 1.74607L34.3709 4.85144L39.185 5.22537L39.5589 10.0385L44.372 10.4124L44.7459 15.2264L48.1234 15.4883C49.3327 18.4205 50 21.6319 50 25.0003Z" fill="#F9EED7"/>
<path d="M50 25.0003C50 28.6559 49.2144 32.1281 47.8023 35.257L23.2918 10.7455L33.999 0.0384521L34.1304 1.74607L34.3708 4.85144L39.1849 5.22537L39.5588 10.0385L44.3719 10.4124L44.7459 15.2264L48.1233 15.4883C49.3326 18.4205 50 21.6319 50 25.0003Z" fill="#FF525D"/>
<path d="M34.8375 37.3996L32.2374 34.7995C30.4238 32.9859 28.5552 33.5351 27.0168 35.0735C25.461 36.6304 24.9292 38.4806 26.7427 40.2931L29.3428 42.8941C31.1564 44.7066 33.0066 44.1759 34.5624 42.619C36.1008 41.0808 36.651 39.2132 34.8375 37.3996ZM32.9699 41.0257C32.4013 41.5942 31.7972 41.6482 31.193 41.044L28.592 38.4439C27.9878 37.8397 28.0428 37.2346 28.6103 36.6671C29.1789 36.0996 29.8013 36.0263 30.4055 36.6304L33.0066 39.2314C33.6108 39.8357 33.5374 40.4582 32.9699 41.0257ZM28.3912 49.4506L21.6332 29.799C21.5782 29.6349 21.4681 29.4883 21.3581 29.3782C20.7722 28.7924 19.8196 28.9748 19.3071 29.4883C18.977 29.8174 18.8313 30.2575 18.9953 30.7149L25.6361 49.9549C26.5857 49.9324 27.523 49.857 28.444 49.7308C28.4411 49.633 28.4238 49.5392 28.3912 49.4506ZM20.5338 39.9091L17.9337 37.308C16.1202 35.4955 14.2527 36.0446 12.7142 37.5831C11.1574 39.1399 10.6266 40.9892 12.4391 42.8026L15.0402 45.4027C16.8527 47.2163 18.703 46.6854 20.2597 45.1287C21.7982 43.5901 22.3474 41.7216 20.5338 39.9091ZM18.6663 43.5351C18.0988 44.1026 17.4936 44.1577 16.8894 43.5535L14.2893 40.9524C13.6841 40.3482 13.7391 39.744 14.3077 39.1766C14.8751 38.6091 15.4977 38.5357 16.1019 39.1398L18.703 41.7399C19.3072 42.3441 19.2337 42.9677 18.6663 43.5351Z" fill="#FFD15C"/>
</g>
<defs>
<clipPath id="clip0">
<rect width="50" height="50" fill="white"/>
</clipPath>
</defs>
</svg>
